HIERARCHY
ROOT Hips
{
	OFFSET 0.000000 0.000000 0.000000
	CHANNELS 6 Xposition Yposition Zposition Xrotation Yrotation Zrotation
	JOINT LeftUpLeg_virtual
	{
		OFFSET 0.000000 0.000000 0.000000
		CHANNELS 3 Xrotation Yrotation Zrotation
		JOINT LeftUpLeg
		{
			OFFSET 15.427100 -6.655098 0.678600
			CHANNELS 3 Xrotation Yrotation Zrotation
			JOINT LeftLeg
			{
				OFFSET 4.081073 -39.591068 13.024000
				CHANNELS 3 Xrotation Yrotation Zrotation
				JOINT LeftFoot
				{
					OFFSET -4.081074 -37.707932 -15.979700
					CHANNELS 3 Xrotation Yrotation Zrotation
					JOINT LeftToeBase
					{
						OFFSET 5.346399 -15.068900 20.645000
						CHANNELS 3 Xrotation Yrotation Zrotation
						JOINT LeftToe_End
						{
							OFFSET 2.754700 0.931300 11.300900
							CHANNELS 3 Xrotation Yrotation Zrotation
							End Site
							{
								OFFSET 0 0 0
							}
						}
					}
				}
			}
		}
	}
	JOINT RightUpLeg_virtual
	{
		OFFSET 0.000000 0.000000 0.000000
		CHANNELS 3 Xrotation Yrotation Zrotation
		JOINT RightUpLeg
		{
			OFFSET -15.569500 -6.655098 0.678600
			CHANNELS 3 Xrotation Yrotation Zrotation
			JOINT RightLeg
			{
				OFFSET -4.081825 -39.591045 13.023800
				CHANNELS 3 Xrotation Yrotation Zrotation
				JOINT RightFoot
				{
					OFFSET 4.081824 -37.707954 -15.979600
					CHANNELS 3 Xrotation Yrotation Zrotation
					JOINT RightToeBase
					{
						OFFSET -5.346400 -15.068900 20.645000
						CHANNELS 3 Xrotation Yrotation Zrotation
						JOINT RightToe_End
						{
							OFFSET -2.754700 0.931300 11.300900
							CHANNELS 3 Xrotation Yrotation Zrotation
							End Site
							{
								OFFSET 0 0 0
							}
						}
					}
				}
			}
		}
	}
	JOINT Spine_virtual
	{
		OFFSET 0.000000 0.000000 0.000000
		CHANNELS 3 Xrotation Yrotation Zrotation
		JOINT Spine
		{
			OFFSET -0.279200 12.230698 -2.892100
			CHANNELS 3 Xrotation Yrotation Zrotation
			JOINT Spine1
			{
				OFFSET -0.232667 10.192268 -1.242267
				CHANNELS 3 Xrotation Yrotation Zrotation
				JOINT Spine1_split
				{
					OFFSET -0.232667 10.192268 -1.242267
					CHANNELS 3 Xrotation Yrotation Zrotation
					JOINT Spine2
					{
						OFFSET -0.232667 10.192268 -1.242267
						CHANNELS 3 Xrotation Yrotation Zrotation
						JOINT Neck_virtual
						{
							OFFSET 0.000000 0.000000 0.000000
							CHANNELS 3 Xrotation Yrotation Zrotation
							JOINT Neck
							{
								OFFSET -0.418800 17.814194 8.416900
								CHANNELS 3 Xrotation Yrotation Zrotation
								JOINT Head
								{
									OFFSET 0.000000 7.031097 3.806800
									CHANNELS 3 Xrotation Yrotation Zrotation
									JOINT HeadTop_End
									{
										OFFSET 0.000000 24.646606 12.978600
										CHANNELS 3 Xrotation Yrotation Zrotation
										End Site
										{
											OFFSET 0 0 0
										}
									}
								}
							}
						}
						JOINT LeftShoulder_virtual
						{
							OFFSET 0.000000 0.000000 0.000000
							CHANNELS 3 Xrotation Yrotation Zrotation
							JOINT LeftShoulder
							{
								OFFSET 8.476499 7.247704 -3.868750
								CHANNELS 3 Xrotation Yrotation Zrotation
								JOINT LeftShoulder_split
								{
									OFFSET 8.476499 7.247704 -3.868750
									CHANNELS 3 Xrotation Yrotation Zrotation
									JOINT LeftArm
									{
										OFFSET 9.308998 -2.777710 0.208600
										CHANNELS 3 Xrotation Yrotation Zrotation
										JOINT LeftForeArm
										{
											OFFSET 29.972298 0.000000 0.000000
											CHANNELS 3 Xrotation Yrotation Zrotation
											JOINT LeftHand
											{
												OFFSET 26.026505 0.000000 0.000000
												CHANNELS 3 Xrotation Yrotation Zrotation
												End Site
												{
													OFFSET 0 0 0
												}
											}
										}
									}
								}
							}
						}
						JOINT RightShoulder_virtual
						{
							OFFSET 0.000000 0.000000 0.000000
							CHANNELS 3 Xrotation Yrotation Zrotation
							JOINT RightShoulder
							{
								OFFSET -7.570500 7.247704 -3.868750
								CHANNELS 3 Xrotation Yrotation Zrotation
								JOINT RightShoulder_split
								{
									OFFSET -7.570500 7.247704 -3.868750
									CHANNELS 3 Xrotation Yrotation Zrotation
									JOINT RightArm
									{
										OFFSET -9.308998 -2.777710 0.208500
										CHANNELS 3 Xrotation Yrotation Zrotation
										JOINT RightForeArm
										{
											OFFSET -29.972300 0.000000 0.000000
											CHANNELS 3 Xrotation Yrotation Zrotation
											JOINT RightHand
											{
												OFFSET -26.026505 0.000000 0.000000
												CHANNELS 3 Xrotation Yrotation Zrotation
												End Site
												{
													OFFSET 0 0 0
												}
											}
										}
									}
								}
							}
						}
					}
				}
			}
		}
	}
}
MOTION
Frames: 10
Frame Time: 0.03333333
-0.815645 81.409325 2.348370 0.000000 0.000000 0.000000 -31.901987 -57.152971 -11.504707 -20.305932 5.424937 23.171316 45.135591 -11.708041 -2.191464 -1.739556 2.258322 -23.740672 -12.720551 -1.273974 1.454626 0.000000 0.000000 0.000000 -26.786120 -53.455164 -8.026845 -15.387252 1.817518 -30.363596 43.888101 3.832346 -7.534878 -16.918611 -6.598125 17.986154 -6.498679 2.164284 -0.561711 0.000000 0.000000 0.000000 -25.201842 -45.241824 -9.555652 13.992250 5.586541 -1.359065 12.273023 2.751901 -7.167967 1.756987 -0.267683 1.651371 0.000000 0.000000 0.000000 10.740711 2.246029 -5.367958 3.780806 -1.118010 -0.364368 -17.425742 31.663370 -12.855294 0.000000 0.000000 0.000000 14.035839 1.649872 -4.958932 1.653949 -12.586857 6.055335 -8.299619 -1.925099 -2.592854 -26.290568 29.039905 -59.693299 170.435568 -52.951848 173.140610 0.000000 0.000000 0.000000 12.312963 1.804705 -4.509617 12.814338 27.490562 -0.966530 -6.270526 -2.965315 2.040548 -55.072160 42.215436 54.025379 170.175078 77.039500 -171.876711 0.000000 0.000000 0.000000 
-1.890708 81.566444 -0.332104 0.000000 0.000000 0.000000 -28.250863 -55.867840 -8.073865 -22.298167 5.528276 20.423106 41.796878 -10.245901 -1.871752 1.505069 1.015579 -20.191342 -12.517188 -0.994334 0.523738 0.000000 0.000000 0.000000 -24.478196 -52.241248 -5.759952 -15.644162 1.390473 -30.563133 47.334737 3.730003 -7.845727 -17.773177 -7.124126 16.877165 -4.758670 2.023704 -0.422427 0.000000 0.000000 0.000000 -23.154650 -44.674205 -7.400895 14.252586 5.018829 -2.025790 12.732181 2.742760 -7.196585 2.146101 0.542014 1.968755 0.000000 0.000000 0.000000 11.580464 2.050934 -5.520165 4.969738 -0.536309 -0.631405 -16.741444 29.966635 -12.266204 0.000000 0.000000 0.000000 14.747569 1.486792 -5.064515 1.884960 -12.744362 5.798186 -5.745752 -3.699290 -2.395430 -28.198332 27.371595 -57.903216 169.868389 -54.485023 172.469721 0.000000 0.000000 0.000000 12.720176 1.648207 -4.643292 12.515300 26.844226 -0.914862 -6.458586 -1.803455 2.958264 -56.040261 40.799814 54.639809 173.567893 74.822427 -175.087542 0.000000 0.000000 0.000000 
-2.834255 82.204544 -4.209614 0.000000 0.000000 0.000000 -21.630550 -51.888121 -2.170964 -25.965143 4.267932 17.387193 36.098369 -9.844628 -1.540677 10.876819 -3.056715 -20.261597 -11.673429 -1.024974 0.723328 0.000000 0.000000 0.000000 -20.046428 -48.680565 -1.393460 -16.210566 0.563134 -30.349939 51.136697 2.485489 -7.697837 -19.036058 -8.809275 13.713136 -4.070008 1.755884 0.082123 0.000000 0.000000 0.000000 -18.845339 -41.830602 -3.055328 16.580692 4.510044 -3.099263 13.244680 2.913800 -7.257952 2.707865 0.860004 2.627838 0.000000 0.000000 0.000000 12.366497 2.107897 -5.850023 3.929182 -0.318368 -1.369138 -17.771128 26.327797 -9.717344 0.000000 0.000000 0.000000 15.239095 1.617831 -5.307882 2.019491 -13.683333 4.410526 -4.361644 -5.396946 -1.509321 -30.366717 21.744261 -53.822478 169.879140 -55.772224 172.926552 0.000000 0.000000 0.000000 13.305086 1.706495 -5.022739 12.245147 25.718514 -1.596450 -7.142982 -1.400008 4.158041 -57.228574 37.093876 53.484766 177.575698 72.398544 -178.878297 0.000000 0.000000 0.000000 
-3.538271 83.391563 -8.729424 0.000000 0.000000 0.000000 -14.733341 -45.798235 3.599143 -30.986137 1.855030 14.911720 29.496886 -9.859713 -1.405345 23.094157 -8.425313 -21.727899 -10.825174 -1.237268 2.095032 0.000000 0.000000 0.000000 -15.028896 -43.242481 3.371106 -17.181824 -0.526480 -29.653447 53.616842 0.717980 -7.104253 -19.783610 -10.773502 9.943259 -4.911261 1.455689 0.679817 0.000000 0.000000 0.000000 -13.571431 -37.297221 1.861792 20.793558 3.967338 -4.196586 13.772975 3.166395 -7.223804 2.561096 0.495121 3.580630 0.000000 0.000000 0.000000 13.063132 2.369024 -6.115186 0.947760 -0.372146 -2.553391 -19.844346 21.226969 -6.090234 0.000000 0.000000 0.000000 15.464754 1.939427 -5.539974 2.108272 -15.219236 2.584506 -4.243104 -6.145791 -0.732211 -32.836442 13.556719 -48.401012 170.608741 -56.671917 174.465243 0.000000 0.000000 0.000000 13.966351 1.933847 -5.423763 12.113124 24.616465 -3.267387 -8.249665 -1.685087 5.271464 -58.561946 32.167643 50.009720 -178.974288 71.004010 177.951672 0.000000 0.000000 0.000000 
-4.111268 84.777176 -13.907501 0.000000 0.000000 0.000000 -9.017953 -38.579282 8.031175 -37.488740 -1.285589 12.891667 23.778124 -9.484956 -1.459476 34.498251 -12.872590 -22.268978 -9.401821 -1.353898 3.735713 0.000000 0.000000 0.000000 -10.415248 -36.635277 7.368345 -18.539696 -1.606769 -28.735108 53.855509 -0.803895 -6.252991 -19.347428 -11.990083 7.670609 -6.622719 1.252301 0.966457 0.000000 0.000000 0.000000 -8.732085 -31.619900 6.074368 26.621482 3.338565 -4.935879 14.235983 3.380959 -6.967453 2.410093 0.884194 3.734735 0.000000 0.000000 0.000000 13.695870 2.684274 -6.081768 -3.157511 -0.636721 -3.934361 -22.152433 15.499610 -2.425242 0.000000 0.000000 0.000000 15.479049 2.317281 -5.553011 2.198957 -17.094749 1.141046 -4.644277 -5.834636 -0.267112 -36.202601 4.533632 -42.669623 172.005610 -57.830747 176.896654 0.000000 0.000000 0.000000 14.637375 2.176700 -5.640387 12.127347 23.843302 -6.089261 -9.163138 -2.089269 5.758897 -60.737457 26.691087 44.026675 -175.702286 71.997297 174.934464 0.000000 0.000000 0.000000 
-4.735065 85.746452 -18.918762 0.000000 0.000000 0.000000 -5.213624 -31.156854 10.819144 -44.921099 -4.168119 10.908947 20.261334 -8.165199 -1.730536 42.017056 -14.363026 -21.270865 -6.580526 -1.266749 4.405017 0.000000 0.000000 0.000000 -6.932554 -30.035494 10.078673 -20.301779 -2.621511 -27.965146 52.024991 -1.702861 -5.293620 -17.679818 -12.220428 7.942396 -8.127296 1.211772 0.728375 0.000000 0.000000 0.000000 -5.247000 -25.963801 9.068368 33.512764 2.700395 -5.076294 14.558371 3.443063 -6.441521 2.512725 1.207389 3.796055 0.000000 0.000000 0.000000 14.252670 2.916091 -5.657553 -7.344461 -0.949785 -5.333145 -23.966446 10.133825 0.647750 0.000000 0.000000 0.000000 15.407565 2.595231 -5.235855 2.444775 -18.921769 0.895121 -5.055795 -4.878313 -0.082893 -42.096659 -4.028891 -37.994956 174.044763 -60.533986 -179.998598 0.000000 0.000000 0.000000 15.227850 2.354620 -5.532718 12.286140 23.487689 -10.005770 -9.936838 -2.375627 5.412646 -64.469636 21.895338 35.896083 -171.237091 76.128920 170.631458 0.000000 0.000000 0.000000 
-5.617023 85.917603 -23.344040 0.000000 0.000000 0.000000 -3.093686 -23.627137 12.478131 -52.535336 -5.553177 8.801279 19.468261 -5.287017 -2.167814 43.816077 -12.086008 -18.553435 -2.834472 -1.047617 3.815917 0.000000 0.000000 0.000000 -4.661541 -23.828148 11.754047 -22.324620 -3.606879 -27.482555 49.246941 -2.115554 -4.429099 -16.180469 -11.717068 9.995704 -8.348749 1.334157 -0.068276 0.000000 0.000000 0.000000 -3.138416 -20.619935 10.960442 40.801399 2.230080 -4.538996 14.649876 3.341677 -5.679525 2.399341 1.622398 3.295956 0.000000 0.000000 0.000000 14.672394 2.998408 -4.899355 -10.553473 -1.175692 -6.258996 -24.746860 5.486958 2.839215 0.000000 0.000000 0.000000 15.371177 2.714263 -4.621801 2.902332 -20.250100 2.067269 -4.820149 -3.761811 -0.142912 -51.448113 -11.811899 -35.718686 176.680998 -65.429551 -176.528302 0.000000 0.000000 0.000000 15.583643 2.368323 -5.081718 12.634492 23.387251 -14.634804 -10.552598 -2.291469 4.325549 -69.877541 18.535134 26.892222 -159.249508 82.807943 158.561448 0.000000 0.000000 0.000000 
-6.721188 85.126022 -27.176140 0.000000 0.000000 0.000000 -2.360503 -16.390123 13.454948 -59.115991 -4.599622 6.476207 21.117283 -1.319857 -2.849085 40.192497 -7.404208 -14.093403 -0.171418 -0.838058 2.348896 0.000000 0.000000 0.000000 -3.680552 -17.929670 12.802851 -24.355270 -4.365900 -27.324727 47.216719 -2.409924 -3.561492 -16.446283 -10.904382 12.375339 -6.698549 1.538121 -1.139420 0.000000 0.000000 0.000000 -2.435336 -15.192282 12.062074 47.810283 1.957862 -3.472152 14.510001 3.102285 -4.763378 2.389323 2.069587 2.592239 0.000000 0.000000 0.000000 14.868547 2.882078 -3.940455 -12.070706 -1.402814 -6.394178 -24.237488 1.649752 4.105656 0.000000 0.000000 0.000000 15.347756 2.620407 -3.783382 3.497477 -20.977500 4.343093 -4.635513 -2.636578 -0.428402 -64.194667 -18.471004 -36.873760 -179.329280 -73.207047 -172.025800 0.000000 0.000000 0.000000 15.808630 2.164949 -4.412948 12.965295 23.282554 -19.013008 -10.532603 -1.699741 3.146895 -76.043863 16.775407 18.694513 -66.862388 87.149539 65.866164 0.000000 0.000000 0.000000 
-7.792861 83.663162 -30.142441 0.000000 0.000000 0.000000 -2.772538 -9.999961 14.062210 -63.784220 -1.674679 4.414865 24.680752 2.471210 -4.092383 32.838416 -3.016017 -8.902605 -0.005234 -0.700687 0.969867 0.000000 0.000000 0.000000 -3.840594 -12.255644 13.539471 -26.086427 -5.146570 -27.535817 47.197792 -3.009302 -2.616550 -19.040320 -10.680054 13.640756 -3.659432 1.698688 -2.045754 0.000000 0.000000 0.000000 -2.736444 -9.741656 12.881793 53.918227 1.866595 -2.146066 14.183194 2.796866 -3.791302 2.384330 2.469158 2.337887 0.000000 0.000000 0.000000 14.754612 2.632150 -2.942418 -11.770775 -1.548333 -5.711503 -22.277055 -1.314199 4.673788 0.000000 0.000000 0.000000 15.307173 2.351125 -2.868632 3.972422 -20.979706 6.808544 -4.435443 -1.428771 -0.377059 -78.506440 -23.375793 -41.587485 -166.822603 -83.469338 -159.423295 0.000000 0.000000 0.000000 15.984205 1.867353 -3.649896 13.068271 23.042910 -22.038461 -9.766820 -0.701930 2.152189 -81.411429 16.231646 13.078327 -20.118351 82.809692 18.701070 0.000000 0.000000 0.000000 
-8.678509 81.899719 -32.340157 0.000000 0.000000 0.000000 -3.858191 -4.652276 14.578487 -67.127516 2.282368 2.888871 29.548010 5.115728 -5.947544 24.920982 -0.856906 -4.588853 -1.309754 -0.546354 0.371519 0.000000 0.000000 0.000000 -4.610040 -6.690949 14.113380 -27.170631 -6.193163 -27.898601 49.144789 -4.244978 -1.717772 -23.183815 -11.686525 13.153542 -0.532552 1.761956 -2.437010 0.000000 0.000000 0.000000 -3.802435 -4.388299 13.568592 58.657555 1.910594 -0.825412 13.751493 2.504409 -2.795448 2.002630 2.362181 2.328315 0.000000 0.000000 0.000000 14.417129 2.340960 -2.002950 -9.992768 -1.670289 -4.236168 -18.867156 -3.538625 4.913992 0.000000 0.000000 0.000000 15.328387 2.036800 -1.948951 4.031975 -20.353573 8.301115 -4.209624 -0.302701 -0.228176 -91.191495 -26.298113 -48.625626 -21.286320 -84.094682 -14.101229 0.000000 0.000000 0.000000 16.072231 1.535665 -2.822653 12.652637 22.586462 -22.809065 -8.215828 0.296289 1.876218 -84.892455 16.043390 10.981216 -15.952171 81.662070 14.054764 0.000000 0.000000 0.000000 
